<svg version="1.1" id="Layer_1" xmlns="http://www.w3.org/2000/svg" xmlns:xlink="http://www.w3.org/1999/xlink" x="0px" y="0px"
	 width="100%" viewBox="0 0 720 496" enable-background="new 0 0 720 496" xml:space="preserve">
<path fill="#000000" opacity="1.000000" stroke="none" 
	d="
M191.050720,339.968781 
	C158.324417,310.731995 148.186829,274.445740 154.685150,232.163727 
	C156.491394,220.411224 161.092255,209.849854 166.122452,199.708588 
	C170.346786,191.191986 176.832672,183.384567 184.165802,176.788925 
	C196.494400,165.700211 209.526154,155.642990 225.698578,150.728699 
	C235.761093,147.671005 246.160583,144.726471 256.601929,145.727646 
	C270.262817,147.037552 283.755432,149.653030 296.824982,154.677689 
	C318.985382,163.197372 336.091187,178.049606 351.619873,195.304153 
	C383.486542,230.712479 415.404602,266.074677 447.361084,301.402008 
	C450.370605,304.729004 453.714752,307.773132 457.079712,310.749420 
	C458.507202,312.012054 460.192169,313.895691 462.308228,312.995270 
	C464.569916,312.032867 463.875824,309.522278 463.881561,307.619812 
	C463.928833,291.957947 463.987488,276.295105 463.857758,260.634094 
	C463.700409,241.637711 463.822571,222.675552 467.737427,203.962387 
	C470.770142,189.466141 475.045166,175.264679 480.184540,161.457489 
	C482.953125,154.019516 489.150848,147.931244 492.876801,140.753998 
	C496.082642,134.578583 500.267578,129.430435 504.939117,124.437714 
	C511.723633,117.186691 518.967896,110.400696 525.573914,102.945679 
	C531.708801,96.022354 539.580078,90.715797 547.960938,86.835808 
	C553.602966,84.223763 558.051392,80.055336 563.327393,76.995247 
	C579.353577,67.699951 596.413147,62.602337 614.510986,59.900230 
	C621.879333,58.800095 628.957397,56.038429 636.644958,56.802113 
	C648.646057,57.994305 656.008728,63.460400 657.498779,75.026115 
	C657.901733,78.153648 658.095703,81.329453 658.100830,84.483566 
	C658.148010,113.479477 658.608704,142.485046 658.027710,171.469330 
	C657.063965,219.544418 641.688477,262.110718 608.367981,297.653503 
	C579.996643,327.917023 545.633423,346.709015 504.579620,352.819977 
	C485.544952,355.653320 466.701569,355.411682 448.934021,346.326324 
	C441.703125,342.628876 435.412323,337.725830 430.020050,331.783508 
	C402.594391,301.560242 375.442017,271.087738 347.878235,240.991669 
	C334.619659,226.515015 322.407806,210.965988 307.006561,198.572144 
	C274.017334,172.024750 225.513885,179.627167 200.598328,213.916473 
	C175.369141,248.637436 185.413528,297.317078 219.641693,319.436218 
	C233.082260,328.121857 248.282715,332.978119 264.579407,331.732544 
	C271.627655,331.193848 278.425812,328.535065 284.810699,325.216217 
	C291.738556,321.615082 298.562958,317.806396 305.827393,314.879303 
	C309.327026,313.469177 311.390747,310.171265 314.390259,308.071625 
	C322.417908,302.452332 332.303864,302.719391 338.138672,308.794067 
	C344.563995,315.483551 344.790161,324.739624 338.789246,332.973389 
	C335.987183,336.818115 332.183624,339.542938 328.445465,342.313995 
	C301.147644,362.549866 270.783936,370.231812 237.407639,363.111023 
	C220.279587,359.456757 204.730347,351.769806 191.050720,339.968781 
M614.288391,96.868927 
	C610.888123,97.677711 607.436401,98.315750 604.095642,99.321991 
	C574.341309,108.283981 549.648926,125.072701 530.110413,149.005447 
	C511.626495,171.646423 500.460938,198.024750 498.723328,227.086929 
	C497.025330,255.486603 498.193207,284.059937 498.197662,312.557037 
	C498.198486,317.878693 499.626740,318.577515 504.653503,317.004120 
	C511.715820,314.793579 518.334045,310.737823 526.212585,311.673309 
	C527.030823,311.770508 528.245361,311.082397 528.799561,310.381805 
	C530.574585,308.137512 533.263428,307.718048 535.525330,306.446533 
	C541.013550,303.361511 547.476013,301.891357 552.101562,297.475616 
	C558.137878,291.713104 565.014282,286.884460 571.682434,282.164032 
	C582.866516,274.246735 590.932434,263.680237 598.869568,253.243393 
	C615.414001,231.488663 621.934570,205.615143 623.398682,178.896255 
	C624.755188,154.140030 623.761963,129.256775 623.877441,104.429817 
	C623.916504,96.024857 623.477539,95.542984 614.288391,96.868927 
z"/>
<path fill="#000000" opacity="1.000000" stroke="none" 
	d="
M361.317993,115.689163 
	C330.012695,94.057549 295.908478,82.476929 257.960236,83.036034 
	C221.331406,83.575722 187.899673,94.553131 158.701981,116.276283 
	C130.305420,137.403381 109.527351,165.008591 97.941566,198.752975 
	C83.985817,239.400009 84.200859,279.978943 99.622780,320.400330 
	C112.199783,353.365112 133.429245,379.542816 161.659714,400.067352 
	C181.576767,414.547668 204.113251,423.621063 228.282928,428.329376 
	C251.581223,432.867920 274.895477,432.772858 297.923889,426.666565 
	C307.336060,424.170807 316.425049,420.588287 325.399872,416.670044 
	C331.469025,414.020386 338.076019,412.585388 343.737183,408.919128 
	C350.799011,404.345764 358.992828,400.830414 364.616089,394.888184 
	C372.946167,386.085693 383.564453,379.807098 390.783081,369.872192 
	C395.285553,363.675537 404.357513,363.210846 410.064117,368.306335 
	C421.876282,378.853577 422.706757,386.466522 411.890594,398.211487 
	C387.971985,424.183807 359.182556,442.855743 325.697479,454.298218 
	C303.710205,461.811615 281.078003,465.380219 257.953156,465.061768 
	C228.259430,464.652863 199.633972,458.324554 172.998077,445.201630 
	C114.418022,416.340546 76.159897,370.488251 59.677494,306.918671 
	C52.902275,280.787933 52.986256,254.401337 55.248753,227.719116 
	C56.278828,215.571213 58.343472,203.543869 62.340012,192.414825 
	C65.470116,183.698486 66.772995,174.239990 70.962418,166.198624 
	C78.137665,152.426147 85.563026,138.435257 95.804108,126.739349 
	C106.747475,114.241394 116.306885,100.174286 130.513550,90.823318 
	C146.323654,80.416924 161.614319,69.305428 179.554947,62.272415 
	C195.639755,55.966911 212.069946,51.348701 228.975983,48.621426 
	C241.245880,46.642048 253.783218,47.319004 266.211090,48.200867 
	C267.031250,48.259060 267.859894,48.254593 268.681976,48.218769 
	C276.429718,47.881138 283.864960,47.598667 291.581726,50.675575 
	C302.511932,55.033775 314.618073,55.685268 325.833008,59.630779 
	C359.170502,71.359192 387.952972,89.970222 411.845490,116.018852 
	C415.188721,119.663818 418.620026,123.561539 419.180878,128.824783 
	C419.846680,135.073135 417.940186,140.325989 412.446289,143.918228 
	C405.879669,148.211853 399.154755,148.006958 392.685333,144.052643 
	C387.832001,141.086151 384.124207,136.657288 380.174438,132.602890 
	C374.349182,126.623299 368.179657,121.041626 361.317993,115.689163 
z"/>
</svg>